# xmcd
#
# Track frame offsets:
#  182
#  16370
#  32520
#  48382
#  61345
#  74657
#  88732
#  102782
#  117895
#  129307
#  143745
#
# Disc length: 2218 seconds
#
# Revision: 0
# Processed by: cddbd v1.5.2PL0 Copyright (c) Steve Scherf et al.
# Submitted via: Collectorz.com_Music_Collector 6.11
#
DISCID=9208a80b
DTITLE=Eric Clapton - Eric Clapton
DYEAR=1970
DGENRE=Blues
TTITLE0=Slunky
TTITLE1=Bad Boy
TTITLE2=Lonesome And A Long Way From Home
TTITLE3=After Midnight
TTITLE4=Easy Now
TTITLE5=Blues Power
TTITLE6=Bottle Of Red Wine
TTITLE7=Lovin' You Lovin' Me
TTITLE8=Told You For The Last Time
TTITLE9=Don't Know Why
TTITLE10=Let It Rain
EXTD=
EXTT0=
EXTT1=
EXTT2=
EXTT3=
EXTT4=
EXTT5=
EXTT6=
EXTT7=
EXTT8=
EXTT9=
EXTT10=
PLAYORDER=
